<svg width="14" height="14" viewBox="0 0 14 14" fill="none" xmlns="http://www.w3.org/2000/svg">
<path d="M8.62132 12.5346L8.62772 12.5384C9.1942 12.899 9.86674 13.0556 10.5343 12.9824C11.2018 12.9092 11.8244 12.6105 12.2993 12.1357L12.7121 11.723C12.8964 11.5384 13 11.2882 13 11.0273C13 10.7665 12.8964 10.5163 12.7121 10.3317L10.9728 8.59374C10.7882 8.4094 10.538 8.30585 10.2771 8.30585C10.0162 8.30585 9.76595 8.4094 9.58134 8.59374C9.49005 8.68514 9.38164 8.75764 9.2623 8.80711C9.14297 8.85657 9.01505 8.88203 8.88586 8.88203C8.75668 8.88203 8.62876 8.85657 8.50942 8.80711C8.39009 8.75764 8.28167 8.68514 8.19038 8.59374L5.4074 5.81059C5.22303 5.62601 5.11947 5.3758 5.11947 5.11493C5.11947 4.85406 5.22303 4.60386 5.4074 4.41928C5.4988 4.328 5.57131 4.2196 5.62079 4.10028C5.67026 3.98096 5.69573 3.85306 5.69573 3.72389C5.69573 3.59472 5.67026 3.46682 5.62079 3.3475C5.57131 3.22818 5.4988 3.11978 5.4074 3.0285L3.6687 1.28789C3.48409 1.10355 3.23386 1 2.97295 1C2.71205 1 2.46181 1.10355 2.27721 1.28789L1.8644 1.70065C1.38963 2.17546 1.09095 2.79793 1.01765 3.46534C0.944343 4.13274 1.1008 4.80518 1.46119 5.3717L1.46546 5.3781C3.37131 8.19903 5.80046 10.6284 8.62132 12.5346Z" stroke="white" stroke-linecap="round" stroke-linejoin="round"/>
</svg>
