<svg width="12" height="12" viewBox="0 0 12 12" fill="none" xmlns="http://www.w3.org/2000/svg">
<path d="M11.6836 0.142667C11.6039 0.084714 11.5135 0.0431215 11.4176 0.0202937C11.3217 -0.00253408 11.2222 -0.00614434 11.1249 0.00967159C11.0275 0.0254875 10.9343 0.060416 10.8506 0.112438C10.7669 0.16446 10.6943 0.232544 10.6371 0.312754L3.61165 10.1028L1.26317 7.75657C1.12078 7.62403 0.932454 7.55187 0.737864 7.55529C0.543275 7.55872 0.357614 7.63748 0.219997 7.77496C0.0823793 7.91244 0.00355033 8.09793 0.000117021 8.29233C-0.00331629 8.48673 0.0689141 8.67487 0.201591 8.81712L3.171 11.7886C3.24935 11.8633 3.34264 11.9204 3.44472 11.9564C3.5468 11.9924 3.65535 12.0063 3.76322 11.9974C3.87109 11.9884 3.97583 11.9567 4.07054 11.9043C4.16525 11.8519 4.24778 11.7801 4.31269 11.6936L11.8589 1.1882C11.9166 1.10825 11.958 1.01765 11.9804 0.921641C12.0029 0.825632 12.0061 0.726125 11.9898 0.628882C11.9735 0.531639 11.938 0.438593 11.8855 0.355133C11.8329 0.271673 11.7643 0.199457 11.6836 0.142667Z" fill="#8ECA38"/>
</svg>
